<?xml version="1.0" encoding="UTF-8" standalone="no"?>
<!--
	Huszár (fehér)
	Eredeti: http://en.wikipedia.org/wiki/File:Chess_nlt45.svg
	Felhasználási feltételek: Nevezd meg! - Így add tovább! (Creative Commons)
	Uray M. János
	2013-2018
-->

<svg
   version="1.1"
   width="128"
   height="128"
   viewBox="0 0 45 45"
   id="svg4"
   xmlns="http://www.w3.org/2000/svg"
   xmlns:svg="http://www.w3.org/2000/svg">
  <defs
     id="defs4" />
  <!-- alap -->
  <g
     fill="#ffffff"
     stroke="#000000"
     stroke-width="1.5"
     stroke-linecap="round"
     stroke-linejoin="round"
     id="g2">
    <!-- test -->
    <path
       d="m 22,10 c 10.5,1 16.5,8 16,29 L 13.078913,38.825356 C 12.072669,29.8002 20.305324,32.382633 23,18"
       id="path1" />
    <!-- fej -->
    <path
       d="m 24,18 c 0.38,3.608577 -4.32749,7.311785 -7.592497,7.835705 -0.559238,1.284857 -0.910226,4.38283 -2.720656,3.019335 -3.030586,-2.282435 -3.181436,8.198993 -4.9572222,8.548582 C 3.2728211,40.873811 4.7576001,26.178473 12,14 14.03774,9.4361436 17.710906,10.095461 22,10"
       id="path2" />
  </g>
  <!-- vonalak -->
  <g
     fill="#000000"
     stroke="#000000"
     stroke-width="1.5"
     stroke-linejoin="round"
     id="g4"
     transform="translate(0.40750323,1.1060802)"
     style="fill:#ffffff">
    <!-- orr -->
    <!-- szem -->
    <path
       d="m 15.25,13.559638 c 0.578633,0.331852 0.184713,3.39757 -0.39392,3.065718 -0.578633,-0.331853 -0.184713,-3.39757 0.39392,-3.065718 z"
       id="path4"
       style="fill:#ffffff" />
  </g>
  <path
     style="fill:#000000;stroke-width:0.351562"
     id="path7"
     d="m 23.923458,10.594081 c -0.333102,0.229683 -0.59326,0.541556 -0.828579,0.866393 -0.205265,0.317442 -0.367998,0.660132 -0.471579,1.024313 -0.07967,0.28009 -0.0894,0.388871 -0.137388,0.676804 -0.06311,0.531371 -0.117705,1.096203 0.05724,1.614788 0.03916,0.11607 0.09554,0.225597 0.143312,0.338395 0.231386,0.437966 0.544841,0.82346 0.839247,1.219196 0.287518,0.386479 0.219348,0.295087 0.492407,0.687073 0.272746,0.386821 0.535335,0.783588 0.760345,1.20057 0.113262,0.209893 0.180808,0.360219 0.283718,0.577446 0.305605,0.711559 0.473618,1.469239 0.598182,2.230375 0.08684,0.611308 0.09849,1.229197 0.14434,1.844216 0.0376,0.549586 0.144434,1.095633 0.352135,1.607498 0.04456,0.109822 0.09767,0.215977 0.146512,0.323966 0.354886,0.670926 0.762028,1.313917 1.180909,1.946509 0.279166,0.395727 0.609092,0.75133 1.001064,1.037301 0.244383,0.178293 0.324376,0.211569 0.592565,0.360625 0.921159,0.4452 1.947304,0.519902 2.951958,0.588885 0.707193,0.03763 1.416225,-0.01743 2.100361,-0.205975 0.356813,-0.09833 0.445649,-0.147802 0.774397,-0.286958 0.441671,-0.213946 0.825071,-0.522456 1.201468,-0.832647 0.218218,-0.192957 0.424311,-0.399928 0.618483,-0.616998 0.12735,-0.141211 0.212565,-0.310803 0.305321,-0.474828 0.461623,-0.81834 -0.695686,-1.471171 -1.157305,-0.652831 v 0 c -0.04646,0.08252 -0.08629,0.169767 -0.142305,0.246215 -0.146064,0.167282 -0.306812,0.321901 -0.469277,0.47307 -0.279979,0.230767 -0.561166,0.465234 -0.882112,0.637707 -0.235063,0.103797 -0.297237,0.139845 -0.55623,0.214615 -0.553545,0.159805 -1.128652,0.202689 -1.702526,0.17296 -0.812184,-0.05481 -1.648034,-0.09683 -2.403821,-0.428539 -0.185607,-0.09959 -0.243471,-0.123031 -0.411967,-0.241615 -0.280354,-0.197308 -0.513385,-0.446512 -0.71238,-0.724857 -0.381916,-0.576131 -0.751648,-1.162074 -1.082111,-1.76935 -0.03375,-0.071 -0.07126,-0.140337 -0.101262,-0.213003 -0.165688,-0.401315 -0.25304,-0.82784 -0.278816,-1.260564 -0.0488,-0.654231 -0.06052,-1.311722 -0.158348,-1.961481 -0.14647,-0.883189 -0.346594,-1.761534 -0.70897,-2.584309 -0.127523,-0.267938 -0.188816,-0.405997 -0.329934,-0.666008 -0.245119,-0.451637 -0.528933,-0.882326 -0.82452,-1.302077 -0.291041,-0.416879 -0.220419,-0.322478 -0.520172,-0.725411 -0.238261,-0.320273 -0.49088,-0.632039 -0.694383,-0.976445 -0.02057,-0.03564 -0.04638,-0.06872 -0.0617,-0.106906 -0.136251,-0.33976 -0.06597,-0.727746 -0.03421,-1.077989 0.06373,-0.408544 0.149992,-0.792226 0.380081,-1.143515 0.13594,-0.197193 0.290336,-0.38614 0.482898,-0.531035 0.781762,-0.521175 0.04471,-1.626753 -0.737052,-1.105579 z" />
  <path
     style="fill:#000000;stroke-width:0.351562"
     id="path8"
     d="m 36.852739,26.838001 c 0.373718,-0.301805 0.549162,-0.735872 0.680973,-1.183435 0.08665,-0.296971 0.09559,-0.60558 0.100006,-0.912399 0.0014,-0.365595 -7.03e-4,-0.731194 -0.0018,-1.096788 -0.0035,-0.329 0.009,-0.658034 -0.01614,-0.986471 -0.0098,-0.128883 -0.04391,-0.428994 -0.05843,-0.560927 -0.06308,-0.443016 -0.118427,-0.890372 -0.243077,-1.320994 -0.116905,-0.319567 -0.247173,-0.635162 -0.38841,-0.944827 -0.16291,-0.353898 -0.341824,-0.700333 -0.550997,-1.02906 -0.190902,-0.302978 -0.396133,-0.596555 -0.603819,-0.888151 -0.144186,-0.203976 -0.282769,-0.411761 -0.438493,-0.6072 -0.120611,-0.154173 -0.22245,-0.321341 -0.333352,-0.48246 -0.135002,-0.194279 -0.287237,-0.3753 -0.456574,-0.540268 -0.0941,-0.110531 -0.202849,-0.208081 -0.29576,-0.319667 -0.614938,-0.71037 -1.619553,0.159285 -1.004615,0.869655 v 0 c 0.122157,0.138798 0.25314,0.268823 0.37728,0.405756 0.107113,0.101892 0.199817,0.217179 0.285174,0.337937 0.12973,0.188451 0.248968,0.384169 0.392974,0.562468 0.142233,0.173246 0.259185,0.365426 0.391925,0.545811 0.195468,0.273023 0.38707,0.549044 0.566476,0.832967 0.17814,0.275329 0.323332,0.569997 0.46229,0.866751 0.118175,0.254969 0.221766,0.516932 0.325031,0.77815 0.04587,0.132728 0.06403,0.268635 0.08797,0.406914 0.03867,0.223305 0.08054,0.446239 0.105223,0.671695 0.0081,0.07377 0.04561,0.408332 0.05264,0.491789 0.02559,0.303861 0.0081,0.608881 0.01392,0.913363 7.03e-4,0.358416 0.0028,0.716835 0.0018,1.075251 -0.0025,0.188112 0.0011,0.378835 -0.04798,0.562109 -0.03196,0.114489 -0.07115,0.222896 -0.11288,0.334055 -0.0072,0.01929 -0.0097,0.04061 -0.01976,0.05856 -0.01519,0.02699 -0.05028,0.04414 -0.05527,0.07471 -0.0028,0.01676 0.03097,-0.01392 0.04648,-0.02088 -0.781759,0.521175 -0.04471,1.626754 0.737054,1.105579 z" />
  <path
     style="fill:#ffffff;stroke-width:0.0582149"
     d="m 31.81436,27.357013 c -1.590672,-0.098 -2.438964,-0.424855 -3.042108,-1.172159 -0.493006,-0.610841 -1.317611,-2.043731 -1.467293,-2.549666 -0.0521,-0.1761 -0.133468,-0.831016 -0.180821,-1.455369 -0.22924,-3.022585 -0.67558,-4.180031 -2.63776,-6.840233 C 23.80527,14.416182 23.756,14.299445 23.802,13.718074 c 0.07328,-0.926183 0.270765,-1.387748 0.82916,-1.937957 0.204641,-0.201641 0.372074,-0.394082 0.372074,-0.427647 0,-0.07748 0.137776,-0.04505 1.047866,0.246655 1.424313,0.456522 2.688951,1.080098 3.842173,1.894525 0.721328,0.509415 2.187019,1.963045 2.752909,2.730254 1.122474,1.521802 2.000473,3.266565 2.690898,5.347365 0.311227,0.937971 0.824143,2.898506 0.877841,3.355389 0.03551,0.302143 0.0296,0.319556 -0.188093,0.55435 -0.123617,0.133326 -0.316445,0.353306 -0.428509,0.488846 -0.291621,0.352714 -0.905011,0.84479 -1.297716,1.041061 -0.60637,0.303058 -1.397432,0.413178 -2.486243,0.346098 z"
     id="path9" />
  <path
     style="fill:#000000;stroke-width:0.165589"
     d="m 19.847735,105.33707 c -1.587737,-0.99762 -2.486528,-6.061701 -2.058651,-11.599098 1.121836,-14.51831 7.514901,-33.765827 16.505002,-49.6914 0.796884,-1.411643 1.8647,-3.351491 2.372928,-4.310773 1.926814,-3.636871 3.750173,-5.574926 6.551615,-6.963734 3.350841,-1.661171 6.0088,-2.028453 14.737387,-2.036442 4.695132,-0.0043 6.426013,0.05088 7.407363,0.236112 l 1.280584,0.241719 -0.589545,0.74312 c -1.722184,2.170807 -2.771773,6.514939 -2.221706,9.195387 0.295174,1.438363 0.796894,2.350068 2.823122,5.130057 0.995701,1.366106 1.811422,2.539716 1.812712,2.608021 0.0013,0.0683 -0.193773,0.124191 -0.433478,0.124191 -0.624542,0 -1.477358,0.580991 -1.72288,1.173732 -0.115834,0.279648 -0.225641,1.229053 -0.244016,2.109791 -0.041,1.96487 -0.378449,3.30312 -1.322401,5.244291 -2.162153,4.446318 -6.921635,8.908224 -12.471283,11.691546 -1.56236,0.783572 -4.651485,1.864292 -5.871819,2.054237 -0.348642,0.05427 -0.871771,0.31431 -1.184288,0.588704 -0.487064,0.427649 -0.69036,0.889142 -1.564824,3.55225 -1.088064,3.313608 -1.659395,4.664724 -2.166628,5.123763 -0.313739,0.28393 -0.363806,0.268679 -1.496081,-0.455741 -1.379309,-0.88247 -2.471173,-1.184071 -3.877839,-1.071156 -1.614692,0.129611 -2.896835,0.95081 -4.039836,2.587473 -1.663191,2.381522 -2.753002,5.434014 -4.653946,13.035412 -1.061182,4.243399 -1.886151,6.976708 -2.531083,8.386048 -0.497285,1.08669 -0.542828,1.13161 -1.807293,1.78264 -1.608917,0.82837 -2.511201,0.97345 -3.233116,0.51985 z M 45.277538,52.149308 c 1.360973,-0.985883 2.191077,-3.679364 2.216503,-7.191999 0.01743,-2.408099 -0.28117,-3.593182 -1.146768,-4.551296 -0.704011,-0.779256 -1.48443,-1.069022 -2.477919,-0.92004 -1.865129,0.279694 -3.005571,2.421511 -3.379604,6.347093 -0.272052,2.855266 0.19406,5.09261 1.270126,6.096609 0.619424,0.577942 0.96758,0.704524 1.972071,0.717008 0.68942,0.0086 0.973239,-0.08276 1.545591,-0.497375 z"
     id="path3"
     transform="scale(0.3515625)" />
  <path
     style="fill:#000000;stroke-width:0.165589"
     d="m 69.630013,108.45169 c -7.604657,-0.0597 -17.582247,-0.11944 -22.172423,-0.13267 l -8.345773,-0.0241 0.101975,-2.52522 c 0.116257,-2.8789 0.489756,-4.90174 1.260443,-6.826434 1.17176,-2.926331 2.610103,-4.803904 7.596669,-9.916476 5.506171,-5.645305 7.478798,-7.989416 10.113773,-12.018387 1.40902,-2.154442 3.58162,-6.283777 4.579048,-8.703129 0.493815,-1.197793 0.825153,-1.71396 1.688153,-2.629849 1.696694,-1.800676 3.116855,-3.830981 4.183429,-5.980759 1.180695,-2.379801 1.640182,-3.940752 1.774259,-6.027454 l 0.100016,-1.556561 0.391281,0.769915 c 1.182085,2.325957 1.932934,5.699935 2.291979,10.299137 0.385524,4.938351 0.656784,5.928432 2.50221,9.132897 3.832592,6.655054 6.34836,8.518415 12.479871,9.243496 1.137864,0.134557 2.972347,0.24465 4.076628,0.24465 4.604791,0 7.569017,-1.100926 10.707559,-3.976829 0.73087,-0.669705 1.13895,-0.94362 1.1892,-0.79822 0.12661,0.366312 0.71784,5.32939 0.99293,8.335204 0.50634,5.532439 0.6057,7.721575 0.70085,15.441139 l 0.0964,7.82406 -11.240929,-0.0329 C 88.51505,108.5751 77.23464,108.5114 69.629983,108.45167 Z"
     id="path5"
     transform="scale(0.3515625)" />
  <path
     style="fill:#000000;stroke-width:0.165589"
     d="m 90.350358,77.80754 c -4.219231,-0.260856 -6.505186,-1.086963 -8.200567,-2.963546 -1.313245,-1.453606 -3.924882,-5.865304 -4.431449,-7.485809 -0.217106,-0.694523 -0.404313,-2.11246 -0.563615,-4.268922 -0.61306,-8.298972 -2.083165,-12.156296 -7.313658,-19.189884 -2.143668,-2.882651 -2.250631,-3.124499 -2.131965,-4.820466 0.185572,-2.652168 0.728938,-3.943878 2.345949,-5.576886 0.585892,-0.591688 1.065257,-1.145174 1.065257,-1.22997 0,-0.198427 0.456711,-0.08795 2.980596,0.721009 4.051379,1.298551 7.648572,3.07228 10.928848,5.388872 2.051777,1.449003 6.220855,5.583772 7.830497,7.766055 3.187374,4.321306 5.61004,9.115013 7.584239,15.006863 0.95157,2.839882 2.63442,9.311866 2.63442,10.131548 0,0.394396 -0.16751,0.72115 -0.62095,1.211261 -0.34153,0.369143 -0.88176,0.986607 -1.20052,1.372142 -0.31876,0.385535 -1.06391,1.101684 -1.655888,1.591441 -2.443081,2.021209 -4.807981,2.620997 -9.251194,2.346292 z"
     id="path6"
     transform="scale(0.3515625)" />
  <path
     style="fill:#ffffff;stroke-width:0.165589"
     d="m 42.290814,52.090186 c -1.201015,-0.81611 -1.698923,-2.270509 -1.676619,-4.897431 0.03464,-4.079937 1.183277,-6.921233 3.020543,-7.471691 1.867419,-0.559493 3.409598,1.107218 3.713439,4.013301 0.247176,2.364098 -0.522704,6.27478 -1.483198,7.534052 -0.965902,1.266363 -2.42589,1.602042 -3.574165,0.821769 z"
     id="path10"
     transform="scale(0.3515625)" />
  <path
     style="fill:#ffffff;stroke-width:0.351562"
     id="path11"
     d="m 23.494917,10.994234 c 0.0052,-0.0074 0.01231,-0.01794 0.01787,-0.02453 0.0097,-0.01151 0.03241,-0.03433 0.0414,-0.04322 0.03617,-0.03574 0.03008,-0.02932 0.06972,-0.06405 0.05202,-0.04593 0.109044,-0.08567 0.162755,-0.129504 0.04205,-0.03431 0.05244,-0.04482 0.09321,-0.08195 0.04622,-0.04428 0.09015,-0.09088 0.133008,-0.138397 0.02373,-0.02631 0.0464,-0.05359 0.07034,-0.07972 0.01046,-0.01141 0.02142,-0.02234 0.03214,-0.03352 0.06525,-0.06777 0.14422,-0.119001 0.222434,-0.170198 0.08583,-0.05443 0.16855,-0.113522 0.254115,-0.168343 0.0481,-0.03136 0.09723,-0.061399 0.150129,-0.084054 0.01986,-0.0085 0.04705,-0.017951 0.06729,-0.025239 0.04903,-0.016601 0.09903,-0.029995 0.149032,-0.043257 0.01619,-0.00506 0.03322,-0.00638 0.0496,-0.010596 0.0097,-0.0025 0.02564,-0.00761 0.03571,-0.010768 0.02537,-0.00724 0.05037,-0.015778 0.07506,-0.025049 0.01695,-0.0052 0.03386,-0.010006 0.05046,-0.016284 0.08724,-0.034878 0.03792,-0.1582569 -0.04932,-0.1233801 v 0 c -0.01499,0.00744 -0.03274,0.00814 -0.04793,0.015303 -0.02237,0.00844 -0.04506,0.016091 -0.06806,0.022634 -0.0077,0.00239 -0.01514,0.0054 -0.02291,0.00744 -0.01869,0.0049 -0.03824,0.0063 -0.05669,0.01227 -0.05373,0.014256 -0.107448,0.028712 -0.16008,0.046709 -0.02717,0.00983 -0.05178,0.018281 -0.07838,0.029816 -0.05821,0.025242 -0.112606,0.058004 -0.165645,0.0926 -0.08589,0.055103 -0.169035,0.1143071 -0.255179,0.1690321 -0.08667,0.05675 -0.173611,0.114232 -0.245683,0.189532 -0.01198,0.01255 -0.02421,0.02487 -0.03593,0.03766 -0.02331,0.02544 -0.04537,0.05201 -0.06847,0.07764 -0.04018,0.04458 -0.08133,0.08834 -0.124573,0.129982 -0.03614,0.033 -0.04833,0.04508 -0.08559,0.07551 -0.05565,0.04543 -0.114768,0.08661 -0.168574,0.134333 -0.0536,0.04724 -0.108391,0.09533 -0.149396,0.154366 -0.05461,0.07645 0.05351,0.153687 0.108124,0.07723 z" />
  <path
     style="fill:#ffffff;stroke-width:0.351562"
     id="path12"
     d="m 24.107163,17.285512 c 0.04513,0.06405 0.08645,0.130613 0.130076,0.195668 0.0463,0.06929 0.09426,0.137391 0.142807,0.205123 0.04252,0.06187 0.08708,0.122303 0.130752,0.18336 0.0324,0.04169 0.06124,0.08579 0.09056,0.129622 0.02022,0.03117 0.04016,0.06254 0.05863,0.09478 0.02038,0.03563 0.04409,0.06917 0.06426,0.10492 0.01646,0.02898 0.03198,0.05849 0.04757,0.08795 0.04396,0.08304 0.161393,0.02087 0.117435,-0.06217 v 0 c -0.01621,-0.03062 -0.03238,-0.06128 -0.04948,-0.09141 -0.02047,-0.03583 -0.04374,-0.06986 -0.06458,-0.105477 -0.02005,-0.03483 -0.04145,-0.06884 -0.06342,-0.102493 -0.03011,-0.04496 -0.05971,-0.09022 -0.09291,-0.133022 -0.0437,-0.06109 -0.08827,-0.121558 -0.130823,-0.183459 -0.04774,-0.06662 -0.09493,-0.133583 -0.140463,-0.201744 -0.04437,-0.06612 -0.08634,-0.133822 -0.132297,-0.198875 -0.05461,-0.07645 -0.162735,7.74e-4 -0.108124,0.07723 z" />
  <path
     style="fill:#ffffff;stroke-width:0.351562"
     id="path13"
     d="m 36.600908,27.057786 c 0.06639,-0.02257 0.132437,-0.04614 0.198812,-0.06879 0.07702,-0.02651 0.154044,-0.05312 0.230305,-0.08179 0.02946,-0.01107 0.05908,-0.02175 0.08805,-0.03401 0.08546,-0.03617 0.116409,-0.05409 0.199357,-0.09676 0.111923,-0.06313 0.221815,-0.13123 0.32253,-0.211344 0.04333,-0.03446 0.0705,-0.05976 0.111249,-0.09622 0.0421,-0.03911 0.04507,-0.04166 0.08481,-0.07936 0.02995,-0.0284 0.03637,-0.03253 0.06143,-0.06614 0.01487,-0.01995 0.02391,-0.03717 0.03594,-0.05839 0.0028,-0.0051 0.01617,-0.02848 0.02032,-0.03454 0.0018,-0.0027 0.0043,-0.005 0.0064,-0.0075 0.0071,-0.0083 0.01417,-0.01616 0.02225,-0.0235 0.0039,-0.0028 0.0078,-0.0057 0.01188,-0.0084 7.03e-4,-3.52e-4 0.0011,-7.03e-4 0.0018,-9.14e-4 2.39e-4,-7.7e-5 -3.13e-4,4.22e-4 -7.03e-4,5.27e-4 -0.0011,6.68e-4 -0.0025,0.0012 -0.0036,0.0019 0.0018,8.44e-4 -0.0049,7.74e-4 -0.0038,0.0014 7.03e-4,4.57e-4 0.0018,-5.7e-5 0.0025,-8.1e-5 0.0014,-3.8e-5 0.0028,-1.8e-5 0.0042,-1.03e-4 0.0032,-1.93e-4 0.0064,-4.92e-4 0.0097,-7.38e-4 0.09362,-0.008 0.08234,-0.140372 -0.01129,-0.132394 v 0 c -0.01487,0.0018 -0.03023,5.62e-4 -0.0445,0.0062 -0.0042,0.0017 -0.0085,0.0031 -0.01266,0.005 -0.01652,0.0074 -0.03066,0.01944 -0.04459,0.03069 -0.0303,0.02885 -0.05485,0.05988 -0.07394,0.09736 -0.0122,0.02192 -0.02408,0.04447 -0.04132,0.06302 -0.0099,0.01061 -0.02092,0.02004 -0.03143,0.03001 -0.03837,0.0364 -0.04194,0.03951 -0.08227,0.07702 -0.03668,0.03288 -0.06408,0.05833 -0.102846,0.08929 -0.09459,0.07555 -0.198049,0.13949 -0.303156,0.19914 -0.07508,0.03875 -0.109202,0.05821 -0.186388,0.09093 -0.02819,0.01196 -0.05705,0.02236 -0.08573,0.03314 -0.07538,0.02834 -0.151513,0.05465 -0.227651,0.08085 -0.06721,0.02294 -0.134083,0.0468 -0.201308,0.06967 -0.0883,0.03211 -0.04289,0.156983 0.04541,0.124875 z" />
  <path
     style="fill:#ffffff;stroke-width:0.165589"
     d="M 88.507115,81.451946 C 84.34868,80.982242 81.640005,79.781173 79.44333,77.432921 78.330194,76.242975 76.257623,73.064478 75.057193,70.706339 73.97985,68.589994 73.668268,67.208198 73.36915,63.220253 73.039397,58.823862 72.506774,56.191904 71.420286,53.589929 71.149027,52.940307 70.90616,52.239903 70.88058,52.033477 70.831743,51.639363 69.652447,49.778962 68.914216,48.931436 67.952144,47.82693 64.982337,43.642642 64.58904,42.83751 c -1.127774,-2.308699 -0.881212,-6.061706 0.595048,-9.057432 0.562159,-1.140771 0.962853,-1.670619 2.114395,-2.795921 1.625579,-1.588537 2.966634,-2.52511 4.049936,-2.828416 0.700142,-0.196027 0.892721,-0.170152 2.803978,0.37675 9.473444,2.710806 17.418955,8.291638 22.816835,16.026275 0.582575,0.834773 1.360575,1.899321 1.728889,2.36566 0.850903,1.077369 3.624599,4.984764 4.539619,6.395108 0.91598,1.411822 2.19788,4.074118 2.71085,5.630013 0.56851,1.724321 0.93869,4.540743 0.93982,7.15043 8e-4,1.828429 0.0958,2.686188 0.55559,5.018972 l 0.55462,2.813646 -0.59698,0.635867 c -0.68041,0.724725 -1.60593,1.310784 -2.65399,1.680562 -0.43311,0.152808 -1.11074,0.633745 -1.69549,1.203331 -2.14195,2.086433 -4.602522,3.389706 -7.40163,3.920373 -1.500575,0.284485 -4.984103,0.323116 -7.143415,0.07922 z m 7.004827,-3.724964 c 0.655496,-0.145891 1.640151,-0.482882 2.188123,-0.74887 1.19506,-0.580087 3.245825,-2.261906 4.014295,-3.292104 0.30533,-0.409323 0.78512,-0.986535 1.0662,-1.282694 0.48319,-0.50911 0.50554,-0.590368 0.40998,-1.490297 -0.0556,-0.523505 -0.43312,-2.260292 -0.83895,-3.859526 C 98.223426,50.786159 91.040936,40.589106 79.840242,35.093914 c -3.566364,-1.7497 -8.695145,-3.459957 -8.86221,-2.955217 -0.04258,0.128633 -0.553679,0.710589 -1.135785,1.293237 -1.145,1.146066 -1.519003,1.756608 -1.934462,3.157914 -0.366023,1.234564 -0.513222,3.406287 -0.286555,4.227746 0.10052,0.364295 0.794232,1.482018 1.541582,2.483829 2.057205,2.757652 3.94556,5.623739 4.816082,7.309702 1.62564,3.14842 2.637834,7.217177 2.939438,11.815783 0.320351,4.884439 0.618272,5.800917 3.230297,9.937193 1.987312,3.147012 3.450479,4.377501 5.986745,5.034714 2.398523,0.621518 7.289425,0.792694 9.376568,0.328167 z"
     id="path14"
     transform="scale(0.3515625)" />
</svg>
