<?xml version="1.0" encoding="UTF-8" standalone="no"?>
<!--
	Huszár (fehér)
	Eredeti: http://en.wikipedia.org/wiki/File:Chess_nlt45.svg
	Felhasználási feltételek: Nevezd meg! - Így add tovább! (Creative Commons)
	Uray M. János
	2013-2018
-->

<svg
   version="1.1"
   width="128"
   height="128"
   viewBox="0 0 45 45"
   id="svg4"
   xmlns="http://www.w3.org/2000/svg"
   xmlns:svg="http://www.w3.org/2000/svg">
  <defs
     id="defs4" />
  <!-- alap -->
  <!-- vonalak -->
  <g
     id="layer1">
    <path
       style="fill:#000000;fill-opacity:1;stroke:none;stroke-width:1.28641;stroke-dasharray:none;stroke-opacity:1"
       id="path55"
       d="m 13.50304,34.741527 c -0.668111,-0.889755 -1.17161,-1.896019 -1.618531,-2.931598 -0.432527,-1.111024 -0.763669,-2.301478 -0.809928,-3.515784 -0.0092,-0.24042 0.0061,-0.481207 0.0091,-0.72181 0.135514,-1.567194 0.677241,-3.019251 1.341061,-4.400503 0.355526,-0.747406 0.866159,-1.370106 1.494937,-1.85759 0.365065,-0.283031 0.687957,-0.467858 1.077773,-0.708857 0.713587,-0.447965 1.483013,-0.747812 2.295118,-0.885272 1.252559,-0.08792 2.51152,-0.03393 3.764133,0.03155 0.690045,0.08863 1.446377,0.123045 2.069988,0.50241 0.376372,0.22896 0.646649,0.500043 0.981614,0.797966 1.071637,0.971223 1.860329,2.227782 2.569853,3.518785 0.55249,1.029578 1.082367,2.073345 1.64445,3.096808 0.337995,0.577685 0.640006,1.184816 1.091362,1.671258 0.304461,0.328129 0.453488,0.423534 0.797864,0.694459 0.819988,0.544214 1.669654,1.028406 2.564062,1.409288 0.940634,0.399891 1.931259,0.554722 2.931713,0.627482 0.790614,0.0075 1.586241,-0.05685 2.354124,-0.271612 0.334222,-0.09348 0.603103,-0.203357 0.924732,-0.326046 0.109572,-0.04392 0.219697,-0.08626 0.32871,-0.131781 0.63445,-0.264974 0.11062,0.03283 -0.551457,-0.593839 -0.07647,-0.07238 0.04485,-0.250413 -0.02557,-0.329729 -0.04763,-0.05365 -0.05811,0.135164 -0.08716,0.202746 -0.252884,0.563707 -0.608342,1.061589 -0.926861,1.581809 -0.415218,0.584654 -0.723365,1.242392 -1.062241,1.878764 -0.286877,0.445046 -0.524907,0.987133 -0.93829,1.313423 -0.270749,0.156828 -0.579678,0.176667 -0.879732,0.194355 -0.502725,0.01484 -1.005792,0.0062 -1.508629,0.0032 -0.800763,-0.0042 -1.601539,-0.0047 -2.402309,-0.0054 -0.776443,-0.01781 -1.551055,0.01243 -2.325138,0.07662 -0.835856,0.08026 -1.672761,0.141005 -2.511546,0.165734 -0.847938,0.01823 -1.69608,0.01989 -2.544156,0.02049 -0.745049,0.01902 -1.487981,-0.01417 -2.231529,-0.05935 -1.157192,-0.06085 -2.316257,-0.06167 -3.474533,-0.06876 -0.936143,-0.0046 -1.872296,-0.0055 -2.808446,-0.0052 -0.534658,-0.02088 -1.036533,-0.268435 -1.543555,-0.436856 -0.12892,-0.03912 -0.243948,-0.104857 -0.356154,-0.181503 -0.836585,-0.532709 -1.528755,0.75499 -0.69217,1.287694 v 0 c 0.207683,0.128175 0.417329,0.249573 0.648787,0.320909 0.637045,0.210906 1.266415,0.505988 1.943439,0.501634 0.933469,-2.56e-4 1.866941,7.9e-4 2.800402,0.0052 1.135362,0.0069 2.271501,0.0075 3.405822,0.06647 0.769247,0.04675 1.538018,0.08043 2.308778,0.06166 0.860288,-3.95e-4 1.720647,-0.0023 2.580796,-0.02104 0.861279,-0.02589 1.720728,-0.08681 2.579007,-0.169554 0.738815,-0.06228 1.478044,-0.08929 2.219154,-0.07224 0.79857,7.9e-4 1.597145,0.0013 2.395707,0.0054 0.532007,0.0032 1.06431,0.01295 1.596146,-0.0056 0.593636,-0.03972 1.17625,-0.142244 1.671204,-0.532049 0.08922,-0.08397 0.183339,-0.162138 0.26766,-0.251902 0.398357,-0.424083 0.682024,-0.965322 0.986088,-1.466732 0.322998,-0.609939 0.618231,-1.239003 1.016236,-1.798147 0.356459,-0.582723 0.752633,-1.141464 1.028014,-1.777588 0.09294,-0.216985 0.315269,-0.682686 0.199347,-0.871452 -0.561547,-0.914427 -0.950537,-0.55662 -1.560851,-0.314499 -0.251941,0.09696 -0.509699,0.201656 -0.767898,0.277172 -0.639874,0.187142 -1.305999,0.235352 -1.966072,0.239084 -0.861555,-0.0604 -1.715017,-0.185706 -2.525699,-0.529651 -0.79037,-0.330451 -1.533816,-0.766719 -2.263497,-1.232665 -0.247462,-0.189088 -0.363993,-0.263366 -0.582746,-0.486996 -0.395319,-0.404132 -0.628251,-0.946095 -0.926467,-1.430108 -0.562548,-1.023752 -1.091773,-2.068536 -1.645176,-3.098127 -0.794442,-1.440281 -1.684684,-2.833246 -2.884782,-3.912872 -0.511655,-0.444789 -0.736973,-0.68602 -1.317571,-1.015148 -0.774521,-0.43906 -1.678334,-0.519558 -2.52939,-0.614406 -1.34629,-0.06973 -2.701441,-0.132358 -4.04653,-0.01444 -0.973144,0.17364 -1.90108,0.522789 -2.757367,1.062496 -0.472324,0.294383 -0.816098,0.48994 -1.258054,0.842542 -0.774475,0.617892 -1.405985,1.404231 -1.8514,2.331107 -0.772212,1.622705 -1.359034,3.235531 -1.495787,5.077632 -7.62e-4,0.293999 -0.01561,0.588357 -0.0023,0.882001 0.06269,1.383567 0.436197,2.738126 0.934061,4.003485 0.495455,1.139299 1.051685,2.247259 1.787941,3.227196 0.605479,0.823756 1.675825,-0.108214 1.070346,-0.93197 z" />
    <rect
       style="fill:#ffdf0d;fill-opacity:1;stroke:#000000;stroke-width:1.25214;stroke-dasharray:none;stroke-opacity:1"
       id="rect6"
       width="30.796988"
       height="6.6378655"
       x="9.575633"
       y="36.237988" />
    <path
       style="fill:#ffdf0d;fill-opacity:1;stroke:none;stroke-width:0.796204;stroke-dasharray:none;stroke-opacity:1"
       d="m 39.960755,100.84459 c -0.570017,-0.20631 -0.864438,-0.50723 -1.070877,-1.094531 -0.156594,-0.445498 -0.84017,-1.653035 -1.519055,-2.683416 -1.545578,-2.345805 -3.360007,-6.10441 -4.222971,-8.747916 -2.476717,-7.586895 -1.872705,-13.739447 2.164355,-22.046447 1.548785,-3.186914 3.591142,-5.294006 7.19406,-7.422088 4.200867,-2.481264 6.694439,-2.98938 13.462195,-2.743196 4.447542,0.161784 7.704792,0.619818 9.112137,1.281348 0.56244,0.264378 1.742176,1.102878 2.621637,1.863333 3.415425,2.953263 5.743378,6.272907 9.932046,14.163021 5.280594,9.946961 5.930887,10.786226 10.423944,13.453083 6.140677,3.644807 11.076604,4.898292 16.787664,4.263252 1.42189,-0.158108 2.61245,-0.257214 2.64569,-0.220237 0.0332,0.03697 -0.48097,0.982075 -1.14269,2.100224 -0.66171,1.118149 -1.66534,2.881067 -2.23028,3.917598 -1.35772,2.49111 -2.40773,3.691612 -3.49231,3.992832 -1.335822,0.37101 -59.632176,0.29714 -60.665545,-0.0769 z"
       id="path66"
       transform="scale(0.3515625)" />
  </g>
  <g
     id="layer4"
     transform="matrix(1.0406156,0,0,1.0575075,3.4275425,2.3280008)">
    <path
       style="fill:#000000;fill-opacity:1;stroke:none;stroke-width:1.21713;stroke-dasharray:none;stroke-opacity:1"
       id="path57"
       d="m 2.1063156,14.887406 c 0.112777,-0.531515 0.16696,-1.073378 0.290572,-1.603284 0.0436,-0.186892 0.09869,-0.371115 0.148041,-0.556673 0.274635,-0.933904 0.70693,-1.819916 1.331306,-2.58548 0.488936,-0.5994972 0.693808,-0.7436642 1.274689,-1.2682092 0.9262417,-0.733414 1.9595247,-1.330817 3.0884087,-1.724206 0.614996,-0.2143109 0.831441,-0.2434439 1.458523,-0.3820449 0.237051,-0.03341 0.4723217,-0.08211 0.7111517,-0.100231 0.682143,-0.05176 1.349836,0.04813 1.981313,0.3042249 0.570429,0.231333 0.714098,0.366068 1.216518,0.704442 0.386219,0.348512 0.61325,0.50973 0.902886,0.936643 0.119738,0.17649 0.217219,0.366875 0.306939,0.559222 0.216975,0.465168 0.35179,0.9045102 0.467535,1.4025762 0.06075,0.261417 0.100803,0.526911 0.151209,0.790367 0.145827,1.107361 0.226953,2.254189 0.03175,3.362003 -0.02676,0.151912 -0.06892,0.300927 -0.103384,0.451391 -0.09981,0.365978 -0.259939,0.707507 -0.506945,1.003542 -0.293697,0.351995 -0.663758,0.626294 -1.029006,0.903537 -0.160635,0.107289 -0.318781,0.218128 -0.481904,0.321868 -0.174588,0.111033 -0.353084,0.216263 -0.530983,0.322296 -0.545864,0.325351 -1.098518,0.640864 -1.671281,0.920597 -0.174153,0.08505 -0.351848,0.163193 -0.527772,0.244789 -0.7550227,0.327096 -1.5483047,0.574334 -2.3626387,0.720253 -0.134658,0.02413 -0.270563,0.04126 -0.405843,0.06189 -0.135972,0.01453 -0.271693,0.03143 -0.407915,0.04358 -0.330465,0.02947 -0.495496,0.04011 -0.82764,0.02811 -0.410229,-0.01483 -0.810912,-0.0742 -1.2142297,-0.142964 -0.331889,-0.0598 -0.656382,-0.14834 -0.971509,-0.264785 -0.151025,-0.05581 -0.351328,-0.134524 -0.492985,-0.215824 -0.06295,-0.03612 -0.119624,-0.08155 -0.179435,-0.122326 -0.391437,-0.303847 -0.66482,-0.715754 -0.920317,-1.126677 -0.191455,-0.340943 -0.364753,-0.693551 -0.449896,-1.073945 -0.05281,-0.304912 -0.05584,-0.61548 -0.0591,-0.923877 -8.75e-4,-0.269015 0.0015,-0.538027 0.0029,-0.807037 9.48e-4,-0.185971 0.0012,-0.371945 0.0013,-0.557918 4.2e-5,-0.07431 4.9e-5,-0.148613 5.3e-5,-0.22292 6.3e-5,-0.939561 -1.37763899,-0.939647 -1.37770199,-8.5e-5 v 0 c -5e-6,0.07402 -10e-6,0.148046 -5.3e-5,0.22207 -1.34e-4,0.184096 -4.01e-4,0.368192 -0.0013,0.552286 -0.0015,0.275844 -0.0038,0.55169 -0.0028,0.82754 0.0045,0.403756 0.0127,0.810299 0.09407,1.20776 0.01922,0.07781 0.03549,0.156364 0.05767,0.233443 0.124281,0.431928 0.336355,0.835803 0.555109,1.228886 0.36256,0.577153 0.762843,1.140061 1.334243,1.545004 0.110872,0.06931 0.217868,0.144759 0.332618,0.207925 0.182446,0.100431 0.451844,0.208172 0.647895,0.27895 0.387494,0.139891 0.785754,0.247766 1.192746,0.320544 0.408939,0.06789 0.521955,0.09464 0.9397687,0.131051 0.656079,0.05717 1.313026,0.0362 1.964727,-0.05682 0.158573,-0.02483 0.317856,-0.04575 0.475717,-0.07449 0.921566,-0.167762 1.8188587,-0.450236 2.6727887,-0.822682 0.192089,-0.08949 0.386078,-0.175294 0.57627,-0.268484 0.602638,-0.29528 1.18545,-0.626676 1.759685,-0.970066 0.195359,-0.116824 0.391413,-0.23273 0.582844,-0.355455 0.186717,-0.119704 0.367533,-0.24776 0.551301,-0.37164 0.16537,-0.12748 0.336053,-0.248859 0.496225,-0.382432 0.288665,-0.240728 0.59333,-0.532336 0.823968,-0.8268 0.340956,-0.435312 0.565975,-0.93324 0.706236,-1.459382 0.04123,-0.189036 0.09124,-0.376486 0.123679,-0.567108 0.159666,-0.938265 0.152213,-1.937905 0.06409,-2.881968 -0.02772,-0.296935 -0.0726,-0.592146 -0.108895,-0.888219 C 16.64864,10.403928 16.604054,10.04347 16.362544,9.3500708 16.172653,8.8048698 15.915463,8.2479358 15.576432,7.7717278 15.18411,7.2206668 14.898358,7.0263908 14.384918,6.5794269 c -0.650027,-0.422293 -0.837816,-0.593113 -1.57781,-0.87439 -0.849409,-0.322867 -1.694872,-0.42741 -2.60153,-0.35194 -0.2752227,0.02291 -0.5462197,0.08006 -0.8193297,0.120096 -0.721229,0.163313 -0.964844,0.196825 -1.672214,0.447982 -1.284057,0.455913 -2.4595757,1.1413519 -3.5084657,1.9859829 -0.668882,0.612406 -0.901365,0.777237 -1.463625,1.480595 -0.716195,0.8959202 -1.21563,1.9268212 -1.532319,3.0124402 -0.0555,0.212387 -0.116944,0.423413 -0.166512,0.637162 -0.11490499,0.495492 -0.17658599,1.000649 -0.26599299,1.500436 -0.256325,0.906455 1.07283299,1.256069 1.32915599,0.349615 z" />
    <path
       style="fill:#ffdf0d;fill-opacity:1;stroke:none;stroke-width:0.796204;stroke-dasharray:none;stroke-opacity:1"
       d="M 14.987371,55.583439 C 13.108517,55.185899 11.029806,54.302597 10.212844,53.55461 9.4775444,52.881389 7.8040314,50.27565 7.2511632,48.943132 6.8899426,48.072521 6.7980282,47.105369 6.7224216,43.379546 6.6352425,39.083448 6.6598142,38.767211 7.2409987,36.705483 8.7914061,31.205478 11.807332,27.183169 16.979311,23.717597 c 3.429979,-2.298315 6.957381,-3.711487 11.014077,-4.412534 3.677245,-0.635474 6.542987,-0.04695 9.651016,1.981997 2.978389,1.944314 4.558423,4.267545 5.535473,8.139181 1.369881,5.428252 1.289457,12.365894 -0.176661,15.239725 -0.998021,1.956281 -3.847834,4.183341 -9.047454,7.070362 -5.279788,2.931535 -9.863325,4.247611 -14.67289,4.213042 -1.460942,-0.0105 -3.393917,-0.17517 -4.295501,-0.365931 z"
       id="path65"
       transform="scale(0.3515625)" />
    <ellipse
       style="fill:#000000;fill-opacity:1;stroke:none;stroke-width:1.11842;stroke-dasharray:none;stroke-opacity:1"
       id="path71"
       ry="1.4087571"
       rx="0.81116772"
       cy="11.491599"
       cx="6.5835471"
       transform="matrix(1,0,-0.08423893,0.99644558,0,0)" />
  </g>
  <g
     id="layer7"
     transform="translate(-0.84411348,-0.23285899)">
    <path
       style="fill:#000000;fill-opacity:1;stroke:none;stroke-width:1.19531;stroke-dasharray:none;stroke-opacity:1"
       id="path67"
       d="m 7.4527411,16.392551 c -0.3366749,-0.0049 -0.6718159,0.03773 -1.006554,0.06859 -0.1935282,0.01416 -0.3870144,0.03743 -0.5813691,0.03555 -0.1086282,-0.0011 -0.1612044,-0.0062 -0.2716544,-0.01347 -0.2714161,-0.02938 -0.5338041,-0.107562 -0.8004003,-0.162118 -0.070226,-0.01437 -0.1409421,-0.02623 -0.2114135,-0.03934 -0.2952014,-0.0509 -0.5935574,-0.07919 -0.8927037,-0.09094 -0.076697,0.0067 -0.1540438,0.0081 -0.2300903,0.02012 -0.331257,0.05233 -0.6724887,0.21601 -0.9353301,0.422012 -0.07688,0.06025 -0.1462354,0.129539 -0.2193531,0.194308 -0.2953105,0.305513 -0.5030702,0.672822 -0.5767441,1.094334 -0.012749,0.07294 -0.016492,0.147176 -0.024738,0.220764 -0.00631,0.285642 0.040757,0.587022 0.2067078,0.827731 0.034963,0.05071 0.076505,0.09656 0.1147582,0.144843 0.046081,0.04008 0.088453,0.08487 0.1382436,0.120233 0.1009478,0.0717 0.1991568,0.114821 0.3101782,0.16381 0.1366786,0.06031 0.2750809,0.116894 0.4133826,0.173342 0.293323,0.144067 0.5924394,0.17991 0.913535,0.203858 0.2078128,0.01398 0.4161129,0.01409 0.6242741,0.01371 0.1356644,-4.22e-4 0.072269,-0.0016 0.1902034,0.0025 0.939137,0.02822 0.9790506,-1.299918 0.039913,-1.328141 v 0 c -0.1614086,-0.0044 -0.083877,-0.0035 -0.2325888,-0.0031 -0.1753864,3.34e-4 -0.3508995,9.14e-4 -0.52603,-0.01026 -0.1172573,-0.0081 -0.099714,-0.0059 -0.2125216,-0.0173 -0.033085,-0.0033 -0.067343,-0.0019 -0.099054,-0.01188 -0.030296,-0.0096 -0.1814746,-0.0737 -0.1960237,-0.07977 -0.1469462,-0.05986 -0.097203,-0.03903 -0.2517514,-0.104479 -0.039945,-0.01692 -0.079882,-0.03385 -0.1197534,-0.05094 -0.023993,-0.01028 -0.045851,-0.02871 -0.071838,-0.03118 -0.032324,-0.0031 0.1303289,0.08087 0.067251,0.07047 0.011221,0.01826 0.023498,0.03591 0.033663,0.05478 0.016505,0.03064 -0.023643,0.03814 -0.018612,-0.02535 -0.00745,-0.169615 0.073684,-0.328829 0.1817332,-0.454328 0.023391,-0.02485 0.044181,-0.05244 0.070174,-0.07456 0.074886,-0.06373 0.1864544,-0.137582 0.2791701,-0.175056 0.02198,-0.0089 0.045629,-0.01319 0.067609,-0.02208 0.00525,-0.0021 0.00885,-0.0071 0.013268,-0.01061 0.2356713,0.0085 0.4706501,0.03119 0.7033433,0.07009 0.3900389,0.07015 0.7717602,0.186964 1.1681923,0.220647 0.1607576,0.0097 0.2187682,0.01567 0.3790181,0.01587 0.2270964,2.86e-4 0.4532474,-0.02273 0.6793439,-0.04094 0.2941991,-0.02713 0.588729,-0.06677 0.8845626,-0.06297 0.9395613,0 0.9395613,-1.32874 0,-1.32874 z" />
    <path
       style="fill:#000000;fill-opacity:1;stroke:none;stroke-width:1.19531;stroke-dasharray:none;stroke-opacity:1"
       id="path68"
       d="m 4.0649442,19.025188 c -0.1881095,0.09434 -0.3751154,0.193382 -0.5447218,0.31884 -0.041224,0.03049 -0.08008,0.06406 -0.1201204,0.0961 -0.050358,0.05303 -0.1054185,0.101955 -0.1510754,0.15908 -0.1764675,0.220793 -0.2891818,0.513109 -0.2969666,0.796733 -0.00239,0.08694 0.012453,0.173495 0.01868,0.260243 0.025885,0.08745 0.03914,0.179688 0.077655,0.262362 0.1505949,0.323257 0.3996803,0.545856 0.7230365,0.689267 0.2643381,0.117235 0.3959709,0.121865 0.6773632,0.170074 0.1246898,0.0058 0.249247,0.0166 0.3740692,0.01745 0.2309566,0.0016 0.5409144,-0.02058 0.7700397,-0.04291 0.1725458,-0.01682 0.5497787,-0.06405 0.7234766,-0.09441 0.1168003,-0.02042 0.2322974,-0.0477 0.3484459,-0.07155 0.4876618,-0.120655 0.8839937,-0.320183 1.2265931,-0.695481 0.2037762,-0.223225 0.2375722,-0.31528 0.3870299,-0.575712 0.046208,-0.113424 0.098035,-0.224719 0.1386242,-0.340273 0.072443,-0.206238 0.1317435,-0.456052 0.1776973,-0.670262 0.064347,-0.299951 0.1088536,-0.602478 0.1522804,-0.905952 0.050749,-0.361166 0.082818,-0.724298 0.094968,-1.088711 0.00288,-0.102645 0.0033,-0.205328 0.00364,-0.308004 0.00278,-0.939557 -1.3259489,-0.943496 -1.3287343,-0.0039 v 0 c -2.482e-4,0.08953 -5.625e-4,0.179061 -0.00292,0.268564 -0.010069,0.316131 -0.038649,0.631026 -0.082348,0.944354 -0.07035,0.494355 -0.1421761,0.99479 -0.3179141,1.464715 -0.071006,0.14275 -0.1321788,0.262611 -0.24903,0.375238 -0.1325236,0.127733 -0.2946077,0.191812 -0.4717333,0.234833 -0.089273,0.01909 -0.1779261,0.04135 -0.2678178,0.05727 -0.1055131,0.01869 -0.2118618,0.03239 -0.3180839,0.0465 -0.383424,0.05093 -0.7707207,0.08757 -1.1578961,0.07473 -0.1608507,-0.01821 -0.1365072,-0.01129 -0.2717037,-0.03902 -0.025478,-0.0052 -0.069186,-0.02654 -0.077993,-0.0021 -0.00506,0.01405 -7.031e-4,0.02986 -0.00102,0.04479 -0.0032,0.0067 -0.00641,0.01348 -0.00961,0.02022 -0.057645,0.07374 0.019354,-0.02174 -0.047855,-0.01932 0.030178,-0.02602 0.064186,-0.057 0.097595,-0.07888 0.085306,-0.05588 0.177492,-0.100473 0.2660288,-0.150664 0.858582,-0.381591 0.3189294,-1.59581 -0.5396523,-1.214218 z" />
    <path
       style="fill:#ffdf0d;fill-opacity:1;stroke:none;stroke-width:0.281501;stroke-dasharray:none;stroke-opacity:1"
       d="m 68.015524,39.443227 c -0.647127,-0.119107 -0.648657,-0.103271 0.0479,-0.495753 0.765874,-0.431537 1.034566,-0.697246 1.234515,-1.220803 0.08001,-0.209505 0.281994,-0.524431 0.448851,-0.699834 0.504534,-0.530376 0.655592,-1.456497 0.348017,-2.133657 -0.209432,-0.461087 -0.760681,-0.914628 -1.237946,-1.018522 -0.212284,-0.04621 -1.080208,-0.102246 -1.928719,-0.124521 l -1.542748,-0.0405 -0.837588,-0.347608 c -0.460674,-0.191184 -0.837589,-0.381447 -0.837589,-0.422807 0,-0.16641 0.260232,-0.681971 0.491821,-0.974376 0.135183,-0.170682 0.466953,-0.428211 0.737268,-0.572287 l 0.491482,-0.261957 0.855884,0.08783 c 0.869559,0.08923 1.259214,0.157396 2.989078,0.52288 1.469307,0.310433 2.512568,0.341135 4.778191,0.140616 1.067055,-0.09444 2.01262,-0.171708 2.101254,-0.171708 0.150174,0 0.157212,0.04089 0.103314,0.600259 -0.03181,0.330142 -0.16475,1.233635 -0.295419,2.007762 -0.58211,3.448604 -1.135247,4.299144 -3.062705,4.709419 -1.305872,0.277966 -4.264818,0.52969 -4.884864,0.415567 z"
       id="path69"
       transform="matrix(0.3515625,0,0,0.3515625,-19.356404,6.5782665)" />
  </g>
  <g
     id="layer6"
     transform="translate(-0.24698426,15.47768)">
    <path
       style="fill:#000000;fill-opacity:1;stroke:none;stroke-width:1.56219;stroke-dasharray:none;stroke-opacity:1"
       id="path56"
       d="m 24.344393,15.562216 c -0.04093,0.03777 -0.133763,0.146114 -0.184721,0.136435 -0.0062,-0.0013 -0.01245,-0.0044 -0.01882,-0.0039 -0.09348,0.0071 -0.185425,0.02957 -0.279734,0.02906 -0.08142,-4.47e-4 -0.198883,-0.02511 -0.272624,-0.03766 -0.408203,-0.08014 -0.810652,-0.212394 -1.194414,-0.389489 -0.261434,-0.120632 -0.425147,-0.22281 -0.676773,-0.368052 -0.101995,-0.07434 -0.207021,-0.143604 -0.305985,-0.223002 -0.387847,-0.311177 -0.767792,-0.70189 -1.033681,-1.151241 -0.0619,-0.104614 -0.110201,-0.218712 -0.165312,-0.328068 -0.3195,-0.687951 -0.476936,-1.453577 -0.478643,-2.230233 -3.61e-4,-0.164568 0.01463,-0.328723 0.02194,-0.493083 0.04645,-0.454582 0.159803,-0.8837637 0.376868,-1.2727017 0.164193,-0.294204 0.384789,-0.586157 0.603652,-0.827991 0.123779,-0.13677 0.259692,-0.25876 0.389537,-0.38814 0.374987,-0.342127 0.776584,-0.649027 1.204581,-0.900404 0.111027,-0.06522 0.222114,-0.132615 0.340274,-0.179136 0.265307,-0.104444 0.733904,-0.183319 0.989085,-0.234829 0.798905,-0.130766 1.6077,-0.206576 2.414073,-0.124567 0.382742,0.03892 0.462894,0.07143 0.8202,0.160938 0.315295,0.09489 0.620641,0.238937 0.873585,0.477009 0.102447,0.09642 0.265107,0.295823 0.350832,0.397056 0.559314,0.70464 1.091428,1.435884 1.642726,2.148493 0.471204,0.5973637 0.972377,1.1934997 1.595889,1.5905797 0.12021,0.07656 0.247584,0.137742 0.371378,0.206616 0.156635,0.05528 0.310518,0.121731 0.469901,0.165841 0.165299,0.04573 0.333839,0.076 0.502309,0.103187 0.59146,0.09543 1.186286,0.09977 1.780242,0.0292 0.217547,-0.02585 0.432994,-0.07075 0.649492,-0.106117 0.5078,-0.100171 1.010322,-0.233385 1.502874,-0.405375 0.112861,-0.03941 0.224404,-0.08354 0.336157,-0.126833 0.304638,-0.117971 0.144608,-0.07044 0.338585,-0.12304 -0.44493,0.176897 -0.667663,-0.255668 -0.844016,-0.605626 -0.02846,-0.05649 -7.34e-4,-0.133281 -0.0228,-0.19332 -0.0087,-0.02379 -0.01362,0.04916 -0.02125,0.07345 -0.01191,0.03813 -0.02499,0.07582 -0.03747,0.113734 -0.144562,0.440518 -0.278533,0.884989 -0.405453,1.332378 -0.06423,0.249148 -0.128675,0.500926 -0.232485,0.733551 -0.05964,0.133641 -0.08887,0.181298 -0.158678,0.309847 -0.105571,0.177059 -0.22277,0.351472 -0.36563,0.492846 -0.08515,0.08426 -0.126193,0.112343 -0.22024,0.1869 -0.343713,0.247373 -0.720085,0.42739 -1.097547,0.596919 -0.385867,0.184055 -0.792224,0.295258 -1.199347,0.398996 -0.361996,0.102295 -0.723529,0.206381 -1.089445,0.289445 -0.363399,0.06513 -0.725899,0.136103 -1.089004,0.203543 -0.266658,0.04941 -0.537127,0.05286 -0.806575,0.0579 -0.300708,0.0038 -0.601439,0.0029 -0.902159,0.0023 -0.224755,-5.38e-4 -0.44951,-8.31e-4 -0.674266,-9.28e-4 -0.260918,-1.08e-4 -0.521833,-9.8e-5 -0.782751,-9.8e-5 -0.333464,10e-7 -0.666927,6e-6 -1.00039,9e-6 -0.444265,1e-6 -0.88853,1e-6 -1.332794,1e-6 -0.100545,-0.0016 -0.201081,-0.0032 -0.301622,-0.0048 -1.154752,-0.01786 -1.177094,1.828448 -0.02235,1.84631 v 0 c 0.107994,0.0017 0.215977,0.0033 0.323967,0.0049 0.444268,0 0.888536,0 1.332804,-2e-6 0.333459,-4e-6 0.666917,-6e-6 1.000378,-9e-6 0.260633,0 0.521266,-9e-6 0.7819,9.8e-5 0.224092,1.32e-4 0.448181,4.23e-4 0.672272,9.28e-4 0.310846,6.35e-4 0.621704,0.0016 0.932535,-0.0027 0.349206,-0.0068 0.699324,-0.01665 1.044614,-0.08221 0.165391,-0.03089 0.33001,-0.06783 0.4955,-0.09779 0.217253,-0.03932 0.436433,-0.06585 0.651854,-0.117861 0.377616,-0.08694 0.75178,-0.190349 1.125137,-0.298083 0.490669,-0.125388 0.979184,-0.265236 1.444723,-0.485035 0.501995,-0.227071 1.000927,-0.47273 1.45055,-0.816575 0.185716,-0.154745 0.243924,-0.193971 0.413439,-0.372572 0.236877,-0.249575 0.437854,-0.542125 0.61293,-0.848911 0.113267,-0.214737 0.153233,-0.279813 0.249945,-0.506831 0.12642,-0.296751 0.21845,-0.610376 0.297987,-0.926629 0.122607,-0.432659 0.252577,-0.862231 0.392382,-1.288201 0.07232,-0.242186 0.216444,-0.708821 0.143489,-0.948529 -0.07548,-0.2480007 -0.181932,-0.5050557 -0.359679,-0.6735827 -0.288136,-0.273194 -0.526359,-0.198608 -0.822428,-0.157755 -0.07444,0.02354 -0.149659,0.04421 -0.223354,0.07061 -0.163242,0.05849 -0.319845,0.139311 -0.485457,0.190021 -0.421436,0.149053 -0.8517,0.263973 -1.286315,0.351887 -0.17508,0.03025 -0.349296,0.06778 -0.525239,0.09076 -0.646238,0.08436 -1.306261,0.05708 -1.937969,-0.1250252 -0.06527,-0.03239 -0.132899,-0.0593 -0.195817,-0.09719 -0.493673,-0.29728 -0.871308,-0.786834 -1.241469,-1.247096 -0.570045,-0.736561 -1.118412,-1.494303 -1.700285,-2.219087 -0.221913,-0.255767 -0.336647,-0.404698 -0.59083,-0.627258 -0.430967,-0.377356 -0.939094,-0.614571 -1.463736,-0.766099 -0.479102,-0.112746 -0.575767,-0.15168 -1.080523,-0.199479 -0.932741,-0.08833 -1.868506,-0.0028 -2.791842,0.152983 -0.573388,0.122859 -0.844622,0.152174 -1.391523,0.381794 -0.156663,0.06577 -0.304318,0.156788 -0.452065,0.245079 -0.528512,0.315822 -1.023677,0.700114 -1.484848,1.129275 -0.435287,0.447942 -0.612969,0.591919 -0.975798,1.121214 -0.2909,0.424364 -0.505458,0.828744 -0.675037,1.330419 -0.179132,0.529935 -0.18633,0.783383 -0.260041,1.3365282 -0.0068,0.227407 -0.02358,0.454721 -0.02014,0.682221 0.01619,1.071348 0.255297,2.12048 0.706407,3.062305 0.09496,0.174835 0.181052,0.356256 0.28491,0.52451 0.372472,0.60342 0.909907,1.155279 1.444995,1.569964 0.142016,0.11006 0.292509,0.205445 0.438764,0.308167 0.348954,0.198924 0.492384,0.290944 0.859604,0.457467 0.495321,0.224612 1.014465,0.387943 1.540992,0.484482 0.106385,0.01419 0.212304,0.03383 0.319142,0.04256 0.364555,0.02984 0.73317,-0.02777 1.080435,-0.152699 0.06603,-0.03326 0.133877,-0.06224 0.198105,-0.09974 0.230523,-0.134614 0.432232,-0.329551 0.607458,-0.54364 0.751571,-0.99133 -0.488459,-2.193005 -1.240032,-1.201674 z" />
    <path
       style="fill:#ffdf0d;fill-opacity:1;stroke:none;stroke-width:0.796204;stroke-dasharray:none;stroke-opacity:1"
       d="m 65.335569,44.042194 c -2.175583,-0.775449 -3.622151,-1.657146 -5.271414,-3.212977 -2.731449,-2.57671 -3.85506,-5.6553 -3.705215,-10.151943 0.111664,-3.350885 0.677676,-4.519331 3.573328,-7.376596 2.607362,-2.572796 4.094663,-3.474417 6.574189,-3.985357 4.75399,-0.979625 9.78165,-0.63002 11.782381,0.819302 0.51199,0.370883 2.423843,2.625268 4.248563,5.009743 4.84814,6.335367 6.480799,7.718282 9.989818,8.461702 2.58863,0.548427 4.971791,0.423409 9.160251,-0.480538 l 0.7569,-0.163353 -0.3671,1.25787 c -1.05277,3.607287 -3.31594,5.367847 -9.000439,7.001593 -5.05957,1.454139 -6.75614,1.632873 -15.49952,1.632873 -8.467568,0 -9.084231,0.07639 -9.430795,1.168319 -0.189028,0.595577 -1.17527,0.602368 -2.810947,0.01936 z"
       id="path64"
       transform="scale(0.3515625)" />
  </g>
</svg>
