<?xml version="1.0" encoding="utf-8"?>
<svg xmlns="http://www.w3.org/2000/svg" width="281.42471mm" height="290.4512mm" viewBox="109.516 83.267 31.38 32.293" version="1.1" id="svg8">
  <defs id="defs2">
    <style type="text/css" id="style1252">
   
    .str0 {stroke:#F89827;stroke-width:8.92925}
    .str1 {stroke:black;stroke-width:0.907212}
    .fil2 {fill:black}
    .fil1 {fill:#F89827}
    .fil0 {fill:#FED14F}
    .fil3 {fill:white}
   
  </style>
  </defs>
  <g style="clip-rule:evenodd;fill-rule:evenodd;image-rendering:optimizeQuality;shape-rendering:geometricPrecision;text-rendering:geometricPrecision" id="g1285" transform="matrix(-0.018787, 0, 0, 0.018787, 139.4008, 86.709982)">
    <g id="Layer_x0020_1">
      <path class="fil0 str0" d="m 1305,536 c 75,-76 24,-158 68,-262 2,-2 -1,-7 -1,-10 -5,-22 -9,-47 -17,-68 -9,-22 -19,-44 -33,-63 -45,-59 -102,-98 -175,-114 -42,-9 -87,-9 -132,0 -37,8 -58,15 -107,45 0,-25 2,-35 14,-57 -5,1 -5,2 -8,4 -5,3 0,0 -4,1 -5,1 -11,12 -14,17 -8,11 -10,24 -14,37 -16,0 -34,8 -42,22 -4,5 -7,7 -9,13 9,-4 19,-7 29,-6 -21,40 -41,52 -56,104 -19,65 -18,156 15,221 8,16 12,30 6,48 -8,21 -30,29 -51,24 -130,-32 -261,-47 -393,-16 -72,17 -132,34 -195,77 -3,2 -3,3 -6,4 -6,-6 -14,-16 -21,-21 -44,-32 -76,-1 -96,-70 -8,-29 -7,-62 1,-91 1,-5 5,-11 5,-16 -28,15 -49,59 -54,91 -5,26 -5,57 1,83 l 9,28 c 2,5 4,7 6,13 -16,-1 -24,-13 -27,-15 0,5 2,8 3,13 0,5 0,0 -1,3 -4,13 7,38 13,48 9,17 24,33 41,42 -2,4 -3,11 -4,15 -14,39 -18,82 -18,123 -1,100 52,209 127,275 185,162 634,148 859,59 73,-29 127,-97 151,-171 18,-53 22,-116 10,-177 -7,-33 -19,-60 -31,-91 -8,-20 -8,-65 11,-80 12,-10 31,-11 45,-16 25,-10 56,-27 75,-46 z" id="path1257" style="stroke:#000000;stroke-width:43.4254;stroke-miterlimit:4;stroke-dasharray:none;stroke-opacity:1"/>
      <path class="fil1" d="m 398,708 c 2,22 17,32 32,45 -57,5 -110,-18 -155,-49 -10,11 -10,51 -9,66 4,52 27,92 58,131 34,43 102,86 156,109 23,9 37,11 59,18 -11,11 -45,12 -60,15 17,29 146,33 179,30 104,-8 217,-66 272,-153 19,-28 37,-74 51,-108 12,-31 8,-11 -36,-58 -17,-17 -37,-35 -55,-52 -66,-62 -84,-77 -175,-90 -52,-8 -130,24 -163,65 -1,1 -1,0 -2,2 -27,45 -109,34 -152,29 z" id="path1259" style="fill:#fed14f;fill-opacity:1;stroke:#000000;stroke-width:43.4254;stroke-miterlimit:4;stroke-dasharray:none;stroke-opacity:1"/>
      <path class="fil1" d="m 1305,536 c 37,-7 95,-13 128,-28 15,-6 36,-18 47,-31 27,-29 22,-36 28,-50 -6,-4 -10,-6 -21,-6 3,-4 30,-21 45,-54 24,-54 -15,-54 -28,-44 -9,7 -28,9 -40,8 -33,-4 -62,-14 -82,-41 -2,-3 -8,-12 -9,-16 -10,-3 -40,24 -47,33 -23,32 -15,54 -39,80 -12,14 -33,26 -52,28 -14,3 -20,-4 -28,-12 l -6,3 v 43 c 0,7 0,9 3,12 26,20 56,42 83,63 8,7 14,7 18,12 z" id="path1261" style="fill:#fed14f;fill-opacity:1;stroke:#000000;stroke-width:43.4254;stroke-miterlimit:4;stroke-dasharray:none;stroke-opacity:1"/>
      <path class="fil2" d="m 1177,227 c -26,3 -48,27 -44,58 3,26 27,49 56,45 26,-4 47,-28 44,-58 -3,-26 -27,-49 -56,-45 z" id="path1265"/>
      <circle class="fil3" cx="1201" cy="259" r="14" id="circle1267"/>
    </g>
  </g>
</svg>