<?xml version="1.0" encoding="UTF-8" standalone="no"?>
<!--
	Huszár (fehér)
	Eredeti: http://en.wikipedia.org/wiki/File:Chess_nlt45.svg
	Felhasználási feltételek: Nevezd meg! - Így add tovább! (Creative Commons)
	Uray M. János
	2013-2018
-->

<svg
   version="1.1"
   width="128"
   height="128"
   viewBox="0 0 45 45"
   id="svg4"
   sodipodi:docname="knight-w.svg"
   inkscape:export-filename="knight-w.png"
   inkscape:export-xdpi="96"
   inkscape:export-ydpi="96"
   xmlns:inkscape="http://www.inkscape.org/namespaces/inkscape"
   xmlns:sodipodi="http://sodipodi.sourceforge.net/DTD/sodipodi-0.dtd"
   xmlns="http://www.w3.org/2000/svg"
   xmlns:svg="http://www.w3.org/2000/svg">
  <defs
     id="defs4" />
  <sodipodi:namedview
     id="namedview4"
     pagecolor="#ffffff"
     bordercolor="#000000"
     borderopacity="0.25"
     inkscape:showpageshadow="2"
     inkscape:pageopacity="0.0"
     inkscape:pagecheckerboard="0"
     inkscape:deskcolor="#d1d1d1">
    <inkscape:page
       x="0"
       y="0"
       width="45"
       height="45"
       id="page2"
       margin="0"
       bleed="0" />
  </sodipodi:namedview>
  <!-- alap -->
  <g
     fill="#ffffff"
     stroke="#000000"
     stroke-width="1.5"
     stroke-linecap="round"
     stroke-linejoin="round"
     id="g2">
    <!-- test -->
    <path
       d="m 22,10 c 10.5,1 16.5,8 16,29 L 13.078913,38.825356 C 12.072669,29.8002 20.305324,32.382633 23,18"
       id="path1"
       sodipodi:nodetypes="cccc" />
    <!-- fej -->
    <path
       d="m 24,18 c 0.38,3.608577 -4.32749,7.311785 -7.592497,7.835705 -0.559238,1.284857 -0.910226,4.38283 -2.720656,3.019335 -3.030586,-2.282435 -3.181436,8.198993 -4.9572222,8.548582 C 3.2728211,40.873811 4.7576001,26.178473 12,14 14.03774,9.4361436 17.710906,10.095461 22,10"
       id="path2"
       sodipodi:nodetypes="ccsccc" />
  </g>
  <!-- vonalak -->
  <g
     fill="#000000"
     stroke="#000000"
     stroke-width="1.5"
     stroke-linejoin="round"
     id="g4"
     transform="translate(0.40750323,1.1060802)">
    <!-- orr -->
    <!-- szem -->
    <path
       d="m 15.25,13.559638 c 0.578633,0.331852 0.184713,3.39757 -0.39392,3.065718 -0.578633,-0.331853 -0.184713,-3.39757 0.39392,-3.065718 z"
       id="path4"
       sodipodi:nodetypes="sss" />
  </g>
  <path
     style="fill:#000000;stroke-width:0.351562"
     id="path7"
     d="m 23.923458,10.594081 c -0.333102,0.229683 -0.59326,0.541556 -0.828579,0.866393 -0.205265,0.317442 -0.367998,0.660132 -0.471579,1.024313 -0.07967,0.28009 -0.0894,0.388871 -0.137388,0.676804 -0.06311,0.531371 -0.117705,1.096203 0.05724,1.614788 0.03916,0.11607 0.09554,0.225597 0.143312,0.338395 0.231386,0.437966 0.544841,0.82346 0.839247,1.219196 0.287518,0.386479 0.219348,0.295087 0.492407,0.687073 0.272746,0.386821 0.535335,0.783588 0.760345,1.20057 0.113262,0.209893 0.180808,0.360219 0.283718,0.577446 0.305605,0.711559 0.473618,1.469239 0.598182,2.230375 0.08684,0.611308 0.09849,1.229197 0.14434,1.844216 0.0376,0.549586 0.144434,1.095633 0.352135,1.607498 0.04456,0.109822 0.09767,0.215977 0.146512,0.323966 0.354886,0.670926 0.762028,1.313917 1.180909,1.946509 0.279166,0.395727 0.609092,0.75133 1.001064,1.037301 0.244383,0.178293 0.324376,0.211569 0.592565,0.360625 0.921159,0.4452 1.947304,0.519902 2.951958,0.588885 0.707193,0.03763 1.416225,-0.01743 2.100361,-0.205975 0.356813,-0.09833 0.445649,-0.147802 0.774397,-0.286958 0.441671,-0.213946 0.825071,-0.522456 1.201468,-0.832647 0.218218,-0.192957 0.424311,-0.399928 0.618483,-0.616998 0.12735,-0.141211 0.212565,-0.310803 0.305321,-0.474828 0.461623,-0.81834 -0.695686,-1.471171 -1.157305,-0.652831 v 0 c -0.04646,0.08252 -0.08629,0.169767 -0.142305,0.246215 -0.146064,0.167282 -0.306812,0.321901 -0.469277,0.47307 -0.279979,0.230767 -0.561166,0.465234 -0.882112,0.637707 -0.235063,0.103797 -0.297237,0.139845 -0.55623,0.214615 -0.553545,0.159805 -1.128652,0.202689 -1.702526,0.17296 -0.812184,-0.05481 -1.648034,-0.09683 -2.403821,-0.428539 -0.185607,-0.09959 -0.243471,-0.123031 -0.411967,-0.241615 -0.280354,-0.197308 -0.513385,-0.446512 -0.71238,-0.724857 -0.381916,-0.576131 -0.751648,-1.162074 -1.082111,-1.76935 -0.03375,-0.071 -0.07126,-0.140337 -0.101262,-0.213003 -0.165688,-0.401315 -0.25304,-0.82784 -0.278816,-1.260564 -0.0488,-0.654231 -0.06052,-1.311722 -0.158348,-1.961481 -0.14647,-0.883189 -0.346594,-1.761534 -0.70897,-2.584309 -0.127523,-0.267938 -0.188816,-0.405997 -0.329934,-0.666008 -0.245119,-0.451637 -0.528933,-0.882326 -0.82452,-1.302077 -0.291041,-0.416879 -0.220419,-0.322478 -0.520172,-0.725411 -0.238261,-0.320273 -0.49088,-0.632039 -0.694383,-0.976445 -0.02057,-0.03564 -0.04638,-0.06872 -0.0617,-0.106906 -0.136251,-0.33976 -0.06597,-0.727746 -0.03421,-1.077989 0.06373,-0.408544 0.149992,-0.792226 0.380081,-1.143515 0.13594,-0.197193 0.290336,-0.38614 0.482898,-0.531035 0.781762,-0.521175 0.04471,-1.626753 -0.737052,-1.105579 z" />
  <path
     style="fill:#000000;stroke-width:0.351562"
     id="path8"
     d="m 36.852739,26.838001 c 0.373718,-0.301805 0.549162,-0.735872 0.680973,-1.183435 0.08665,-0.296971 0.09559,-0.60558 0.100006,-0.912399 0.0014,-0.365595 -7.03e-4,-0.731194 -0.0018,-1.096788 -0.0035,-0.329 0.009,-0.658034 -0.01614,-0.986471 -0.0098,-0.128883 -0.04391,-0.428994 -0.05843,-0.560927 -0.06308,-0.443016 -0.118427,-0.890372 -0.243077,-1.320994 -0.116905,-0.319567 -0.247173,-0.635162 -0.38841,-0.944827 -0.16291,-0.353898 -0.341824,-0.700333 -0.550997,-1.02906 -0.190902,-0.302978 -0.396133,-0.596555 -0.603819,-0.888151 -0.144186,-0.203976 -0.282769,-0.411761 -0.438493,-0.6072 -0.120611,-0.154173 -0.22245,-0.321341 -0.333352,-0.48246 -0.135002,-0.194279 -0.287237,-0.3753 -0.456574,-0.540268 -0.0941,-0.110531 -0.202849,-0.208081 -0.29576,-0.319667 -0.614938,-0.71037 -1.619553,0.159285 -1.004615,0.869655 v 0 c 0.122157,0.138798 0.25314,0.268823 0.37728,0.405756 0.107113,0.101892 0.199817,0.217179 0.285174,0.337937 0.12973,0.188451 0.248968,0.384169 0.392974,0.562468 0.142233,0.173246 0.259185,0.365426 0.391925,0.545811 0.195468,0.273023 0.38707,0.549044 0.566476,0.832967 0.17814,0.275329 0.323332,0.569997 0.46229,0.866751 0.118175,0.254969 0.221766,0.516932 0.325031,0.77815 0.04587,0.132728 0.06403,0.268635 0.08797,0.406914 0.03867,0.223305 0.08054,0.446239 0.105223,0.671695 0.0081,0.07377 0.04561,0.408332 0.05264,0.491789 0.02559,0.303861 0.0081,0.608881 0.01392,0.913363 7.03e-4,0.358416 0.0028,0.716835 0.0018,1.075251 -0.0025,0.188112 0.0011,0.378835 -0.04798,0.562109 -0.03196,0.114489 -0.07115,0.222896 -0.11288,0.334055 -0.0072,0.01929 -0.0097,0.04061 -0.01976,0.05856 -0.01519,0.02699 -0.05028,0.04414 -0.05527,0.07471 -0.0028,0.01676 0.03097,-0.01392 0.04648,-0.02088 -0.781759,0.521175 -0.04471,1.626754 0.737054,1.105579 z" />
  <path
     style="fill:#ffffff;stroke-width:0.0582149"
     d="m 31.81436,27.357013 c -1.590672,-0.098 -2.438964,-0.424855 -3.042108,-1.172159 -0.493006,-0.610841 -1.317611,-2.043731 -1.467293,-2.549666 -0.0521,-0.1761 -0.133468,-0.831016 -0.180821,-1.455369 -0.22924,-3.022585 -0.67558,-4.180031 -2.63776,-6.840233 C 23.80527,14.416182 23.756,14.299445 23.802,13.718074 c 0.07328,-0.926183 0.270765,-1.387748 0.82916,-1.937957 0.204641,-0.201641 0.372074,-0.394082 0.372074,-0.427647 0,-0.07748 0.137776,-0.04505 1.047866,0.246655 1.424313,0.456522 2.688951,1.080098 3.842173,1.894525 0.721328,0.509415 2.187019,1.963045 2.752909,2.730254 1.122474,1.521802 2.000473,3.266565 2.690898,5.347365 0.311227,0.937971 0.824143,2.898506 0.877841,3.355389 0.03551,0.302143 0.0296,0.319556 -0.188093,0.55435 -0.123617,0.133326 -0.316445,0.353306 -0.428509,0.488846 -0.291621,0.352714 -0.905011,0.84479 -1.297716,1.041061 -0.60637,0.303058 -1.397432,0.413178 -2.486243,0.346098 z"
     id="path9" />
</svg>
